# Blender v2.91.0 OBJ File: ''
# www.blender.org
mtllib meteor.mtl
o Icosphere
v 0.000000 -1.180967 0.000000
v 0.890037 -0.572441 0.662414
v -0.339957 -0.572441 1.071818
v -1.100144 -0.623939 0.000000
v -0.339957 -0.572441 -1.071818
v 0.890037 -0.572441 -0.662414
v 0.339957 0.572441 1.071818
v -0.803420 0.572441 0.662414
v -0.890037 0.572441 -0.662414
v 0.339957 0.572441 -1.071818
v 1.100144 0.572436 0.000000
v 0.000000 1.189209 0.000000
v -0.199820 -1.088838 0.629994
v 0.523147 -1.088837 0.389354
v 0.323329 -0.672944 1.019355
v 1.046297 -0.672942 0.000000
v 0.644588 -1.088837 -0.389354
v -0.646648 -1.088834 0.000000
v -0.725751 -0.672942 0.629996
v -0.199820 -0.969456 -0.804842
v -0.846473 -0.553561 -0.804844
v 0.444770 -0.672944 -1.019355
v 1.165983 0.000000 0.389356
v 1.165983 0.000000 -0.389356
v 0.000000 0.000000 1.260000
v 0.722976 0.000000 1.019361
v -1.169801 -0.051503 0.389356
v -0.722976 0.000000 1.019361
v -0.722976 0.000000 -1.019361
v -1.169801 0.000000 -0.389356
v 0.722976 0.000000 -0.997090
v 0.000000 0.000000 -1.260000
v 0.719228 0.672942 0.629996
v -0.323329 0.672944 1.019355
v -0.971038 0.672942 0.000000
v -0.323329 0.672944 -1.019355
v 0.846473 0.672942 -0.629996
v 0.253525 1.053381 0.629994
v 0.556778 0.986476 0.000000
v -0.523147 1.088837 0.389354
v -0.523147 1.088837 -0.389354
v 0.199820 1.088838 -0.629994
vt 0.818181 0.000000
vt 0.772726 0.078731
vt 0.863635 0.078731
vt 0.727272 0.157461
vt 0.681818 0.078731
vt 0.636363 0.157461
vt 0.090909 0.000000
vt 0.045454 0.078731
vt 0.136363 0.078731
vt 0.272727 0.000000
vt 0.227273 0.078731
vt 0.318182 0.078731
vt 0.454545 0.000000
vt 0.409090 0.078731
vt 0.500000 0.078731
vt 0.681818 0.236191
vt 0.909090 0.157461
vt 0.818181 0.157461
vt 0.863635 0.236191
vt 0.181818 0.157461
vt 0.090909 0.157461
vt 0.136363 0.236191
vt 0.363636 0.157461
vt 0.272727 0.157461
vt 0.318182 0.236191
vt 0.545454 0.157461
vt 0.454545 0.157461
vt 0.500000 0.236191
vt 0.772726 0.236191
vt 0.954545 0.236191
vt 0.227273 0.236191
vt 0.409090 0.236191
vt 0.590909 0.236191
vt 0.818181 0.314921
vt 0.727272 0.314921
vt 0.772726 0.393651
vt 1.000000 0.314921
vt 0.909091 0.314921
vt 0.954545 0.393651
vt 0.272727 0.314921
vt 0.181818 0.314921
vt 0.227273 0.393651
vt 0.454545 0.314921
vt 0.363636 0.314921
vt 0.409090 0.393651
vt 0.636363 0.314921
vt 0.545454 0.314921
vt 0.590909 0.393651
vt 0.500000 0.393651
vt 0.545454 0.472382
vt 0.318182 0.393651
vt 0.363636 0.472382
vt 0.136363 0.393651
vt 0.181818 0.472382
vt 0.090909 0.314921
vt 0.863635 0.393651
vt 0.909090 0.472382
vt 0.681818 0.393651
vt 0.727272 0.472382
vt 0.045454 0.236191
vt 0.000000 0.157461
vt 0.590909 0.078731
vt 0.636363 0.000000
vn 0.0536 -0.9855 0.1611
vn 0.7135 -0.6479 0.2666
vn -0.1404 -0.9851 0.0995
vn -0.1376 -0.9658 -0.2197
vn -0.0133 -0.9679 -0.2511
vn 0.9122 -0.3143 0.2629
vn 0.0254 -0.3258 0.9451
vn -0.8012 -0.4002 0.4450
vn -0.4605 -0.2295 -0.8575
vn 0.6396 -0.2403 -0.7302
vn 0.8122 -0.1191 0.5711
vn -0.3134 -0.1234 0.9416
vn -0.9933 -0.1157 -0.0076
vn -0.3134 -0.1234 -0.9416
vn 0.8034 -0.1079 -0.5856
vn 0.5136 0.6287 0.5839
vn -0.5532 0.6038 0.5740
vn -0.7511 0.6330 -0.1879
vn 0.0397 0.6558 -0.7539
vn 0.6020 0.7900 -0.1164
vn 0.3419 0.9389 -0.0412
vn 0.5333 0.8292 -0.1674
vn 0.4200 0.6531 -0.6301
vn -0.0583 0.9828 -0.1751
vn -0.1939 0.7893 -0.5826
vn -0.4834 0.6522 -0.5839
vn -0.1884 0.9821 0.0000
vn -0.6804 0.7328 0.0000
vn -0.7729 0.5685 0.2818
vn -0.0236 0.9753 0.2198
vn -0.1418 0.8048 0.5763
vn 0.0452 0.6802 0.7316
vn 0.3414 0.9377 0.0648
vn 0.6176 0.7560 0.2170
vn 0.5894 0.7735 0.2330
vn 0.8968 0.3146 -0.3109
vn 0.7963 0.1705 -0.5804
vn 0.5929 0.2991 -0.7477
vn -0.0254 0.3258 -0.9451
vn -0.3104 0.1843 -0.9326
vn -0.5447 0.3235 -0.7737
vn -0.9149 0.3672 -0.1676
vn -0.9617 0.2736 0.0181
vn -0.8762 0.3915 0.2811
vn -0.6041 0.3588 0.7115
vn -0.3104 0.1843 0.9326
vn -0.0254 0.3258 0.9451
vn 0.6573 0.3802 0.6507
vn 0.7751 0.3197 0.5450
vn 0.8151 0.3870 0.4311
vn 0.3399 0.1054 -0.9346
vn 0.3397 -0.1095 -0.9341
vn 0.0218 -0.3239 -0.9459
vn -0.8096 0.1218 -0.5742
vn -0.8149 -0.0422 -0.5780
vn -0.9037 -0.2947 -0.3106
vn -0.8025 0.2304 0.5503
vn -0.7591 -0.3237 0.5648
vn -0.6535 -0.3771 0.6564
vn 0.3134 0.1234 0.9416
vn 0.3104 -0.1843 0.9326
vn 0.5447 -0.3235 0.7737
vn 0.9935 0.1143 0.0000
vn 0.9845 -0.1751 0.0000
vn 0.9122 -0.3143 -0.2629
vn 0.5857 -0.5786 -0.5677
vn 0.1730 -0.7959 -0.5802
vn -0.0167 -0.5620 -0.8270
vn -0.3889 -0.6047 -0.6951
vn -0.4978 -0.7740 -0.3912
vn -0.6881 -0.6712 -0.2756
vn -0.6711 -0.6547 0.3479
vn -0.5678 -0.7180 0.4027
vn -0.5034 -0.6365 0.5843
vn 0.8064 -0.5261 -0.2700
vn 0.6651 -0.7395 0.1037
vn 0.1558 -0.9875 0.0243
vn -0.0397 -0.6558 0.7539
vn 0.1939 -0.7893 0.5826
vn 0.4834 -0.6522 0.5839
usemtl None
s off
f 1/1/1 14/2/1 13/3/1
f 2/4/2 14/5/2 16/6/2
f 1/7/3 13/8/3 18/9/3
f 1/10/4 18/11/4 20/12/4
f 1/13/5 20/14/5 17/15/5
f 2/4/6 16/6/6 23/16/6
f 3/17/7 15/18/7 25/19/7
f 4/20/8 19/21/8 27/22/8
f 5/23/9 21/24/9 29/25/9
f 6/26/10 22/27/10 31/28/10
f 2/4/11 23/16/11 26/29/11
f 3/17/12 25/19/12 28/30/12
f 4/20/13 27/22/13 30/31/13
f 5/23/14 29/25/14 32/32/14
f 6/26/15 31/28/15 24/33/15
f 7/34/16 33/35/16 38/36/16
f 8/37/17 34/38/17 40/39/17
f 9/40/18 35/41/18 41/42/18
f 10/43/19 36/44/19 42/45/19
f 11/46/20 37/47/20 39/48/20
f 39/48/21 42/49/21 12/50/21
f 39/48/22 37/47/22 42/49/22
f 37/47/23 10/43/23 42/49/23
f 42/45/24 41/51/24 12/52/24
f 42/45/25 36/44/25 41/51/25
f 36/44/26 9/40/26 41/51/26
f 41/42/27 40/53/27 12/54/27
f 41/42/28 35/41/28 40/53/28
f 35/41/29 8/55/29 40/53/29
f 40/39/30 38/56/30 12/57/30
f 40/39/31 34/38/31 38/56/31
f 34/38/32 7/34/32 38/56/32
f 38/36/33 39/58/33 12/59/33
f 38/36/34 33/35/34 39/58/34
f 33/35/35 11/46/35 39/58/35
f 24/33/36 37/47/36 11/46/36
f 24/33/37 31/28/37 37/47/37
f 31/28/38 10/43/38 37/47/38
f 32/32/39 36/44/39 10/43/39
f 32/32/40 29/25/40 36/44/40
f 29/25/41 9/40/41 36/44/41
f 30/31/42 35/41/42 9/40/42
f 30/31/43 27/22/43 35/41/43
f 27/22/44 8/55/44 35/41/44
f 28/30/45 34/38/45 8/37/45
f 28/30/46 25/19/46 34/38/46
f 25/19/47 7/34/47 34/38/47
f 26/29/48 33/35/48 7/34/48
f 26/29/49 23/16/49 33/35/49
f 23/16/50 11/46/50 33/35/50
f 31/28/51 32/32/51 10/43/51
f 31/28/52 22/27/52 32/32/52
f 22/27/53 5/23/53 32/32/53
f 29/25/54 30/31/54 9/40/54
f 29/25/55 21/24/55 30/31/55
f 21/24/56 4/20/56 30/31/56
f 27/22/57 28/60/57 8/55/57
f 27/22/58 19/21/58 28/60/58
f 19/21/59 3/61/59 28/60/59
f 25/19/60 26/29/60 7/34/60
f 25/19/61 15/18/61 26/29/61
f 15/18/62 2/4/62 26/29/62
f 23/16/63 24/33/63 11/46/63
f 23/16/64 16/6/64 24/33/64
f 16/6/65 6/26/65 24/33/65
f 17/15/66 22/27/66 6/26/66
f 17/15/67 20/14/67 22/27/67
f 20/14/68 5/23/68 22/27/68
f 20/12/69 21/24/69 5/23/69
f 20/12/70 18/11/70 21/24/70
f 18/11/71 4/20/71 21/24/71
f 18/9/72 19/21/72 4/20/72
f 18/9/73 13/8/73 19/21/73
f 13/8/74 3/61/74 19/21/74
f 16/6/75 17/62/75 6/26/75
f 16/6/76 14/5/76 17/62/76
f 14/5/77 1/63/77 17/62/77
f 13/3/78 15/18/78 3/17/78
f 13/3/79 14/2/79 15/18/79
f 14/2/80 2/4/80 15/18/80
