# Blender v2.91.0 OBJ File: ''
# www.blender.org
mtllib solarcell.mtl
o Cube.001_Cube.001
v 1.120000 0.809999 4.760000
v 1.120000 5.209999 4.760001
v -1.120000 5.209999 4.760001
v -1.120000 0.809999 4.760000
v -1.120000 5.210001 -4.759999
v -1.120000 0.810001 -4.760000
v 1.120000 5.210001 -4.759999
v 1.120000 0.810001 -4.760000
v -4.760000 0.810000 1.120000
v -4.760000 5.210000 1.120001
v -4.760000 5.210000 -1.119999
v -4.760000 0.810000 -1.120000
v 4.760000 5.210000 -1.119999
v 4.760000 0.810000 -1.120000
v 4.760000 5.210000 1.120001
v 4.760000 0.810000 1.120000
v -1.120000 2.492353 1.120000
v -1.120000 3.527647 1.120001
v -1.120000 2.492353 -1.120000
v -1.120000 0.810000 -1.120000
v -1.120000 0.810000 0.263530
v -1.120000 0.810000 1.120000
v 1.120000 3.527647 -1.119999
v 1.120000 2.492353 -1.120000
v 1.120000 2.492353 1.120000
v 1.120000 0.810000 -1.120000
v 1.120000 0.810000 -0.263529
v 1.120000 0.810000 1.120000
v -1.120000 3.527647 -1.119999
v -1.120000 5.210000 -1.119999
v -1.120000 5.210000 -0.263529
v -1.120000 5.210000 1.120001
v 1.120000 3.527647 1.120001
v 1.120000 5.210000 -1.119999
v 1.120000 5.210000 0.263530
v 1.120000 5.210000 1.120001
v -0.263529 0.810000 -1.120000
v 0.263529 0.810000 1.120000
v 0.263529 5.210000 -1.119999
v -0.263529 5.210000 1.120001
v 0.000000 0.810000 0.000000
v 0.000000 5.210000 0.000001
vt 0.625000 0.000000
vt 0.375000 0.250000
vt 0.375000 0.000000
vt 0.625000 0.500000
vt 0.375000 0.750000
vt 0.375000 0.500000
vt 0.625000 0.250000
vt 0.625000 0.750000
vt 0.625000 0.000000
vt 0.375000 0.250000
vt 0.375000 0.000000
vt 0.625000 0.500000
vt 0.375000 0.750000
vt 0.375000 0.500000
vt 0.625000 0.250000
vt 0.625000 0.750000
vt 0.375000 0.404412
vt 0.470588 0.404412
vt 0.470588 0.345588
vt 0.529412 0.845588
vt 0.470588 0.845588
vt 0.470588 0.904412
vt 0.375000 1.000000
vt 0.375000 0.904412
vt 0.279412 0.500000
vt 0.279412 0.595588
vt 0.220588 0.654412
vt 0.125000 0.500000
vt 0.220588 0.500000
vt 0.250000 0.625000
vt 0.243080 0.500000
vt 0.779412 0.595588
vt 0.779412 0.500000
vt 0.875000 0.500000
vt 0.720588 0.654412
vt 0.750000 0.625000
vt 0.720588 0.500000
vt 0.743080 0.500000
vt 0.529412 0.404412
vt 0.625000 0.345588
vt 0.529412 0.345588
vt 0.625000 0.845588
vt 0.625000 1.000000
vt 0.529412 0.904412
vt 0.220588 0.750000
vt 0.125000 0.750000
vt 0.279412 0.750000
vt 0.256921 0.750000
vt 0.720588 0.750000
vt 0.875000 0.750000
vt 0.779412 0.750000
vt 0.756921 0.750000
vt 0.529412 0.345588
vt 0.470588 0.345588
vt 0.470588 0.404412
vt 0.375000 0.404412
vt 0.375000 1.000000
vt 0.375000 0.904412
vt 0.470588 0.904412
vt 0.470588 0.845588
vt 0.125000 0.500000
vt 0.220588 0.654412
vt 0.125000 0.750000
vt 0.279412 0.595588
vt 0.279412 0.500000
vt 0.875000 0.500000
vt 0.779412 0.595588
vt 0.779412 0.500000
vt 0.720588 0.654412
vt 0.625000 0.345588
vt 0.529412 0.404412
vt 0.625000 0.845588
vt 0.529412 0.845588
vt 0.529412 0.904412
vt 0.220588 0.750000
vt 0.875000 0.750000
vt 0.720588 0.750000
vt 0.375000 0.345588
vt 0.375000 0.845588
vt 0.625000 0.404412
vt 0.625000 0.904412
vt 0.375000 0.345588
vt 0.375000 0.845588
vt 0.220588 0.500000
vt 0.720588 0.500000
vt 0.625000 0.404412
vt 0.625000 0.904412
vt 0.625000 1.000000
vt 0.279412 0.750000
vt 0.779412 0.750000
vn 0.0000 -0.0000 1.0000
vn 0.0000 0.0000 -1.0000
vn -1.0000 0.0000 0.0000
vn 1.0000 -0.0000 0.0000
vn 0.0000 -1.0000 -0.0000
vn 0.0000 1.0000 0.0000
usemtl Material.005
s off
f 2/1/1 4/2/1 1/3/1
f 5/4/2 8/5/2 6/6/2
f 2/1/1 3/7/1 4/2/1
f 5/4/2 7/8/2 8/5/2
f 10/9/3 12/10/3 9/11/3
f 13/12/4 16/13/4 14/14/4
f 10/9/3 11/15/3 12/10/3
f 13/12/4 15/16/4 16/13/4
f 20/17/3 19/18/3 6/6/3
f 3/7/3 17/19/3 4/2/3
f 8/5/4 23/20/4 24/21/4
f 25/22/4 1/23/4 28/24/4
f 20/25/5 6/6/5 37/26/5
f 38/27/5 4/28/5 22/29/5
f 22/29/5 41/30/5 38/27/5
f 20/25/5 41/30/5 21/31/5
f 40/32/6 32/33/6 3/34/6
f 5/4/6 39/35/6 7/8/6
f 42/36/6 30/37/6 31/38/6
f 42/36/6 32/33/6 40/32/6
f 6/6/3 19/18/3 29/39/3
f 32/40/3 18/41/3 3/7/3
f 7/8/4 34/42/4 23/20/4
f 2/43/4 25/22/4 33/44/4
f 28/45/5 1/46/5 38/27/5
f 37/26/5 8/5/5 26/47/5
f 26/47/5 41/30/5 37/26/5
f 28/45/5 41/30/5 27/48/5
f 39/35/6 34/49/6 7/8/6
f 2/50/6 40/32/6 3/34/6
f 42/36/6 36/51/6 35/52/6
f 42/36/6 34/49/6 39/35/6
f 12/10/2 29/53/2 19/54/2
f 24/55/2 14/14/2 26/56/2
f 9/57/1 22/58/1 17/59/1
f 15/16/1 25/60/1 16/13/1
f 12/61/5 21/62/5 9/63/5
f 27/64/5 26/65/5 14/14/5
f 11/66/6 31/67/6 30/68/6
f 13/12/6 35/69/6 15/16/6
f 11/15/2 30/70/2 29/53/2
f 14/14/2 24/55/2 23/71/2
f 36/72/1 33/73/1 15/16/1
f 9/57/1 17/59/1 18/74/1
f 21/62/5 22/75/5 9/63/5
f 16/13/5 27/64/5 14/14/5
f 10/76/6 31/67/6 11/66/6
f 15/16/6 35/69/6 36/77/6
f 18/41/3 17/19/3 3/7/3
f 17/19/3 22/78/3 4/2/3
f 24/21/4 26/79/4 8/5/4
f 8/5/4 7/8/4 23/20/4
f 38/27/5 1/46/5 4/28/5
f 22/29/5 21/31/5 41/30/5
f 20/25/5 37/26/5 41/30/5
f 5/4/6 30/37/6 39/35/6
f 42/36/6 39/35/6 30/37/6
f 42/36/6 31/38/6 32/33/6
f 30/80/3 5/4/3 29/39/3
f 5/4/3 6/6/3 29/39/3
f 33/44/4 36/81/4 2/43/4
f 2/43/4 1/23/4 25/22/4
f 37/26/5 6/6/5 8/5/5
f 26/47/5 27/48/5 41/30/5
f 28/45/5 38/27/5 41/30/5
f 2/50/6 36/51/6 40/32/6
f 42/36/6 40/32/6 36/51/6
f 42/36/6 35/52/6 34/49/6
f 19/54/2 20/82/2 12/10/2
f 12/10/2 11/15/2 29/53/2
f 33/73/1 25/60/1 15/16/1
f 25/60/1 28/83/1 16/13/1
f 12/61/5 20/84/5 21/62/5
f 13/12/6 34/85/6 35/69/6
f 34/86/2 13/12/2 23/71/2
f 13/12/2 14/14/2 23/71/2
f 32/87/1 10/88/1 18/74/1
f 10/88/1 9/57/1 18/74/1
f 16/13/5 28/89/5 27/64/5
f 10/76/6 32/90/6 31/67/6
o Cube_Cube.002
v -5.000000 0.000001 -5.000000
v -5.000000 6.000001 -4.999999
v 5.000000 6.000001 -4.999999
v 5.000000 0.000001 -5.000000
v 5.000000 -0.000001 5.000000
v 5.000000 5.999999 5.000001
v -5.000000 5.999999 5.000001
v -5.000000 -0.000001 5.000000
v -5.000000 5.210000 -1.119999
v -5.000000 0.810000 -1.120000
v 5.000000 0.810000 -1.120000
v 5.000000 5.210000 -1.119999
v -5.000000 5.210000 1.120001
v 5.000000 5.210000 1.120001
v 5.000000 0.810000 1.120000
v -5.000000 0.810000 1.120000
v -1.120000 2.517200 -1.120000
v -1.120000 1.945059 -5.000000
v -1.120000 2.771453 -1.120000
v -1.120000 2.517200 1.120000
v -1.120000 3.248547 1.120000
v -1.120000 2.327999 5.000000
v -1.120000 4.074941 5.000000
v -1.120000 0.810001 -5.000000
v -1.120000 0.810000 -1.120000
v -1.120000 0.810000 -0.250880
v -1.120000 0.810000 1.120000
v -1.120000 0.809999 5.000000
v 1.120000 4.074943 -5.000000
v 1.120000 2.328001 -5.000000
v 1.120000 3.248547 -1.120000
v 1.120000 0.810001 -5.000000
v 1.120000 0.810000 -1.120000
v 1.120000 0.810000 0.250880
v 1.120000 2.771453 1.120000
v 1.120000 0.810000 1.120000
v 1.120000 1.945057 5.000000
v 1.120000 0.809999 5.000000
v -1.120000 3.672001 -5.000000
v -1.120000 5.210001 -4.999999
v -1.120000 5.210000 -1.119999
v -1.120000 5.210000 0.250881
v -1.120000 5.210000 1.120001
v -1.120000 5.209999 5.000001
v 1.120000 3.502800 -1.119999
v 1.120000 3.502800 1.120001
v 1.120000 3.671999 5.000000
v 1.120000 5.210001 -4.999999
v 1.120000 5.210000 -1.119999
v 1.120000 5.210000 -0.250879
v 1.120000 5.210000 1.120001
v 1.120000 5.209999 5.000001
v -0.542152 0.810001 -5.000000
v 0.542152 0.809999 5.000000
v 0.121442 5.210000 -1.119999
v -0.121442 5.210000 1.120001
v 0.542152 5.210001 -4.999999
v -0.542152 5.209999 5.000001
v -0.121442 0.810000 -1.120000
v 0.121442 0.810000 1.120000
v 0.000000 0.810000 0.000000
v 0.000000 5.210000 0.000001
vt 0.375000 0.500000
vt 0.125000 0.750000
vt 0.125000 0.500000
vt 0.875000 0.500000
vt 0.625000 0.750000
vt 0.625000 0.500000
vt 0.625000 0.000000
vt 0.592083 0.153000
vt 0.592083 0.097000
vt 0.375000 0.250000
vt 0.375000 0.000000
vt 0.408750 0.153000
vt 0.592083 0.653000
vt 0.592083 0.597000
vt 0.375000 0.750000
vt 0.408750 0.653000
vt 0.875000 0.750000
vt 0.625000 0.250000
vt 0.408750 0.097000
vt 0.408750 0.597000
vt 0.375000 0.388554
vt 0.375000 0.435508
vt 0.439492 0.435508
vt 0.461250 0.314492
vt 0.375000 0.314492
vt 0.375000 0.361446
vt 0.461250 0.814492
vt 0.375000 0.861446
vt 0.513554 0.861446
vt 0.375000 0.888554
vt 0.439492 0.935508
vt 0.486446 0.888554
vt 0.263554 0.500000
vt 0.310508 0.564492
vt 0.310508 0.500000
vt 0.189492 0.500000
vt 0.236446 0.638554
vt 0.236446 0.500000
vt 0.763554 0.500000
vt 0.810508 0.564492
vt 0.810508 0.500000
vt 0.689492 0.500000
vt 0.736446 0.638554
vt 0.736446 0.500000
vt 0.537614 0.435508
vt 0.625000 0.435508
vt 0.625000 0.388554
vt 0.625000 0.361446
vt 0.560508 0.314492
vt 0.513554 0.361446
vt 0.560508 0.814492
vt 0.528000 0.861446
vt 0.625000 0.861446
vt 0.528000 0.888554
vt 0.537614 0.935508
vt 0.236446 0.750000
vt 0.189492 0.685508
vt 0.189492 0.750000
vt 0.310508 0.750000
vt 0.263554 0.611446
vt 0.263554 0.750000
vt 0.736446 0.750000
vt 0.689492 0.685508
vt 0.689492 0.750000
vt 0.810508 0.750000
vt 0.763554 0.611446
vt 0.763554 0.750000
vt 0.408750 0.347000
vt 0.408750 0.361446
vt 0.408750 0.861446
vt 0.375000 1.000000
vt 0.625000 0.399222
vt 0.528000 0.399222
vt 0.625000 0.483132
vt 0.375000 0.266868
vt 0.472000 0.350778
vt 0.486446 0.350778
vt 0.625000 0.983132
vt 0.625000 0.899222
vt 0.513554 0.899222
vt 0.625000 0.850779
vt 0.625000 0.766869
vt 0.528000 0.850779
vt 0.141868 0.750000
vt 0.225779 0.597000
vt 0.141869 0.500000
vt 0.274221 0.750000
vt 0.358131 0.750000
vt 0.274221 0.653000
vt 0.250000 0.625000
vt 0.225778 0.750000
vt 0.252626 0.750000
vt 0.774221 0.653000
vt 0.774221 0.750000
vt 0.858131 0.750000
vt 0.641868 0.750000
vt 0.725778 0.597000
vt 0.641868 0.500000
vt 0.752626 0.750000
vt 0.725778 0.750000
vt 0.750000 0.625000
vt 0.592083 0.388554
vt 0.592083 0.903000
vt 0.592083 0.888554
vt 0.625000 1.000000
vt 0.375000 0.350778
vt 0.513554 0.399222
vt 0.375000 0.483131
vt 0.375000 0.983131
vt 0.472000 0.899221
vt 0.375000 0.899221
vt 0.375000 0.766868
vt 0.375000 0.850778
vt 0.486446 0.850779
vt 0.225779 0.500000
vt 0.358131 0.500000
vt 0.247374 0.500000
vt 0.274221 0.500000
vt 0.858132 0.500000
vt 0.725779 0.500000
vt 0.774221 0.500000
vt 0.747374 0.500000
vt 0.486446 0.388554
vt 0.472000 0.388554
vt 0.472000 0.361446
vt 0.375000 0.814492
vt 0.375000 0.935508
vt 0.625000 0.314492
vt 0.625000 0.814492
vt 0.625000 0.935508
vt 0.625000 0.888554
vt 0.408750 0.403000
vt 0.472000 0.403000
vt 0.528000 0.347000
vt 0.456044 0.347000
vt 0.528000 0.847000
vt 0.456044 0.847000
vt 0.408750 0.847000
vt 0.408750 0.903000
vt 0.472000 0.903000
vt 0.625000 0.350779
vt 0.625000 0.266869
vt 0.544789 0.403000
vt 0.592083 0.403000
vt 0.592083 0.347000
vt 0.592083 0.847000
vt 0.544789 0.903000
vt 0.375000 0.399221
vn 0.0000 -1.0000 -0.0000
vn 0.0000 1.0000 0.0000
vn -1.0000 0.0000 0.0000
vn 1.0000 0.0000 0.0000
vn 0.0000 0.0000 -1.0000
vn 0.0000 0.0000 1.0000
usemtl Material.003
s off
f 46/91/7 50/92/7 43/93/7
f 44/94/8 48/95/8 45/96/8
f 49/97/9 51/98/9 55/99/9
f 43/100/9 50/101/9 52/102/9
f 45/96/10 56/103/10 54/104/10
f 47/105/10 46/91/10 57/106/10
f 46/91/7 47/105/7 50/92/7
f 44/94/8 49/107/8 48/95/8
f 49/97/9 44/108/9 51/98/9
f 51/98/9 44/108/9 52/102/9
f 44/108/9 43/100/9 52/102/9
f 50/101/9 49/97/9 58/109/9
f 49/97/9 55/99/9 58/109/9
f 50/101/9 58/109/9 52/102/9
f 45/96/10 48/95/10 56/103/10
f 56/103/10 48/95/10 57/106/10
f 48/95/10 47/105/10 57/106/10
f 46/91/10 45/96/10 53/110/10
f 45/96/10 54/104/10 53/110/10
f 46/91/10 53/110/10 57/106/10
f 67/111/10 66/112/10 60/113/10
f 64/114/10 70/115/10 69/116/10
f 72/117/9 75/118/9 73/119/9
f 78/120/9 79/121/9 77/122/9
f 67/123/8 95/124/8 66/125/8
f 70/126/8 102/127/8 69/128/8
f 85/129/7 100/130/7 86/131/7
f 82/132/7 97/133/7 83/134/7
f 81/135/10 82/136/10 83/137/10
f 85/138/10 65/139/10 63/140/10
f 71/141/9 87/142/9 91/143/9
f 88/144/9 77/122/9 89/145/9
f 78/146/8 96/147/8 80/148/8
f 74/149/8 101/150/8 75/151/8
f 91/152/7 99/153/7 90/154/7
f 94/155/7 98/156/7 93/157/7
f 66/158/11 95/159/11 43/100/11
f 47/105/12 96/160/12 50/161/12
f 91/162/12 87/163/12 54/164/12
f 52/165/12 59/166/12 61/167/12
f 55/168/11 85/169/11 63/170/11
f 93/171/11 56/172/11 88/173/11
f 58/174/8 68/175/8 52/176/8
f 78/177/8 57/178/8 76/179/8
f 103/180/8 69/181/8 102/182/8
f 76/179/8 102/182/8 78/177/8
f 84/183/7 85/184/7 55/185/7
f 56/186/7 92/187/7 54/188/7
f 84/183/7 98/189/7 85/184/7
f 93/190/7 104/191/7 92/187/7
f 45/96/11 99/192/11 44/108/11
f 86/193/12 100/194/12 49/195/12
f 52/165/12 67/196/12 59/166/12
f 54/164/12 73/197/12 53/198/12
f 58/199/11 62/200/11 69/201/11
f 57/202/11 78/203/11 77/204/11
f 52/176/8 68/175/8 67/205/8
f 53/206/8 76/179/8 57/178/8
f 101/207/8 68/175/8 103/180/8
f 103/180/8 75/208/8 101/207/8
f 51/209/7 84/183/7 55/185/7
f 54/188/7 92/187/7 91/210/7
f 83/211/7 104/191/7 84/183/7
f 97/212/7 92/187/7 104/191/7
f 61/213/10 59/214/10 60/113/10
f 59/214/10 67/111/10 60/113/10
f 69/116/10 62/215/10 64/114/10
f 62/215/10 63/140/10 64/114/10
f 63/140/10 65/139/10 64/114/10
f 73/119/9 71/141/9 72/117/9
f 72/117/9 74/216/9 75/118/9
f 78/120/9 80/217/9 79/121/9
f 67/123/8 101/150/8 95/124/8
f 70/126/8 96/147/8 102/127/8
f 85/129/7 98/156/7 100/130/7
f 82/132/7 99/153/7 97/133/7
f 83/137/10 61/213/10 81/135/10
f 61/213/10 60/113/10 81/135/10
f 85/138/10 86/218/10 65/139/10
f 91/143/9 90/219/9 71/141/9
f 71/141/9 73/119/9 87/142/9
f 79/121/9 89/145/9 77/122/9
f 89/145/9 94/220/9 93/221/9
f 88/144/9 89/145/9 93/221/9
f 78/146/8 102/127/8 96/147/8
f 74/149/8 95/124/8 101/150/8
f 91/152/7 97/133/7 99/153/7
f 94/155/7 100/130/7 98/156/7
f 74/222/11 72/223/11 46/91/11
f 43/100/11 44/108/11 81/224/11
f 81/224/11 60/225/11 43/100/11
f 60/225/11 66/158/11 43/100/11
f 74/222/11 46/91/11 95/159/11
f 46/91/11 43/100/11 95/159/11
f 47/105/12 48/95/12 89/226/12
f 89/226/12 79/227/12 47/105/12
f 79/227/12 80/228/12 47/105/12
f 70/229/12 64/230/12 50/161/12
f 80/228/12 96/160/12 47/105/12
f 96/160/12 70/229/12 50/161/12
f 83/231/12 51/232/12 61/167/12
f 51/232/12 52/165/12 61/167/12
f 63/170/11 62/200/11 58/199/11
f 58/199/11 55/168/11 63/170/11
f 58/174/8 69/181/8 68/175/8
f 103/180/8 68/175/8 69/181/8
f 76/179/8 103/180/8 102/182/8
f 56/186/7 93/190/7 92/187/7
f 84/183/7 104/191/7 98/189/7
f 93/190/7 98/189/7 104/191/7
f 45/96/11 46/91/11 72/223/11
f 72/223/11 71/233/11 45/96/11
f 71/233/11 90/234/11 45/96/11
f 82/235/11 81/224/11 44/108/11
f 90/234/11 99/192/11 45/96/11
f 99/192/11 82/235/11 44/108/11
f 94/236/12 89/226/12 48/95/12
f 49/195/12 50/161/12 64/230/12
f 64/230/12 65/237/12 49/195/12
f 65/237/12 86/193/12 49/195/12
f 94/236/12 48/95/12 100/194/12
f 48/95/12 49/195/12 100/194/12
f 87/163/12 73/197/12 54/164/12
f 73/197/12 75/238/12 53/198/12
f 88/173/11 56/172/11 77/204/11
f 56/172/11 57/202/11 77/204/11
f 53/206/8 75/208/8 76/179/8
f 101/207/8 67/205/8 68/175/8
f 103/180/8 76/179/8 75/208/8
f 51/209/7 83/211/7 84/183/7
f 83/211/7 97/212/7 104/191/7
f 97/212/7 91/210/7 92/187/7
o Cube.002_Cube.004
v -4.144000 4.493999 4.144000
v -4.144000 6.131999 4.144001
v -4.144000 6.132001 -4.144000
v -4.144000 4.494000 -4.144000
v 4.144000 6.132001 -4.144000
v 4.144000 4.494000 -4.144000
v 4.144000 6.131999 4.144001
v 4.144000 4.493999 4.144000
vt 0.625000 0.000000
vt 0.375000 0.250000
vt 0.375000 0.000000
vt 0.625000 0.250000
vt 0.375000 0.500000
vt 0.625000 0.500000
vt 0.375000 0.750000
vt 0.625000 0.750000
vt 0.375000 1.000000
vt 0.125000 0.750000
vt 0.125000 0.500000
vt 0.875000 0.500000
vt 0.625000 1.000000
vt 0.875000 0.750000
vn -1.0000 0.0000 0.0000
vn 0.0000 0.0000 -1.0000
vn 1.0000 -0.0000 0.0000
vn 0.0000 -0.0000 1.0000
vn 0.0000 -1.0000 -0.0000
vn 0.0000 1.0000 0.0000
usemtl Material.001
s off
f 106/239/13 108/240/13 105/241/13
f 107/242/14 110/243/14 108/240/14
f 109/244/15 112/245/15 110/243/15
f 111/246/16 105/247/16 112/245/16
f 110/243/17 105/248/17 108/249/17
f 107/250/18 111/246/18 109/244/18
f 106/239/13 107/242/13 108/240/13
f 107/242/14 109/244/14 110/243/14
f 109/244/15 111/246/15 112/245/15
f 111/246/16 106/251/16 105/247/16
f 110/243/17 112/245/17 105/248/17
f 107/250/18 106/252/18 111/246/18
o Cube.003_Cube.005
v -4.000000 4.630000 4.000001
v -4.000000 6.569999 4.000001
v -4.000000 6.570000 -3.999999
v -4.000000 4.630001 -3.999999
v 4.000000 6.570000 -3.999999
v 4.000000 4.630001 -3.999999
v 4.000000 6.569999 4.000001
v 4.000000 4.630000 4.000001
v -3.700000 6.569999 3.700001
v -3.700000 4.630000 3.700001
v -3.700000 4.630001 -3.699999
v -3.700000 6.570000 -3.699999
v 3.700000 4.630001 -3.699999
v 3.700000 6.570000 -3.699999
v 3.700000 4.630000 3.700001
v 3.700000 6.569999 3.700001
vt 0.625000 0.000000
vt 0.375000 0.250000
vt 0.375000 0.000000
vt 0.625000 0.250000
vt 0.375000 0.500000
vt 0.625000 0.500000
vt 0.375000 0.750000
vt 0.625000 0.750000
vt 0.375000 1.000000
vt 0.428953 0.000000
vt 0.532586 0.250000
vt 0.532585 0.000000
vt 0.428953 0.250000
vt 0.532586 0.500000
vt 0.428953 0.750000
vt 0.428953 0.500000
vt 0.532586 0.750000
vt 0.428953 1.000000
vt 0.532586 1.000000
vt 0.365625 0.740625
vt 0.365625 0.509375
vt 0.125000 0.750000
vt 0.134375 0.509375
vt 0.134375 0.740625
vt 0.875000 0.500000
vt 0.634375 0.509375
vt 0.875000 0.750000
vt 0.634375 0.740625
vt 0.865625 0.740625
vt 0.625000 1.000000
vt 0.125000 0.500000
vt 0.865625 0.509375
vn -1.0000 0.0000 0.0000
vn 0.0000 0.0000 -1.0000
vn 1.0000 0.0000 0.0000
vn 0.0000 0.0000 1.0000
vn -0.0000 -1.0000 -0.0000
vn 0.0000 1.0000 0.0000
usemtl Material.002
s off
f 114/253/19 116/254/19 113/255/19
f 115/256/20 118/257/20 116/254/20
f 117/258/21 120/259/21 118/257/21
f 119/260/22 113/261/22 120/259/22
f 122/262/21 124/263/21 121/264/21
f 123/265/22 126/266/22 124/263/22
f 127/267/19 126/266/19 125/268/19
f 128/269/20 122/270/20 121/271/20
f 118/257/23 127/272/23 125/273/23
f 113/274/23 123/275/23 122/276/23
f 117/258/24 115/277/24 126/278/24
f 114/279/24 128/280/24 121/281/24
f 114/253/19 115/256/19 116/254/19
f 115/256/20 117/258/20 118/257/20
f 117/258/21 119/260/21 120/259/21
f 119/260/22 114/282/22 113/261/22
f 122/262/21 123/265/21 124/263/21
f 123/265/22 125/268/22 126/266/22
f 127/267/19 128/269/19 126/266/19
f 128/269/20 127/267/20 122/270/20
f 125/273/23 123/275/23 116/283/23
f 118/257/23 120/259/23 127/272/23
f 125/273/23 116/283/23 118/257/23
f 122/276/23 127/272/23 120/259/23
f 113/274/23 116/283/23 123/275/23
f 122/276/23 120/259/23 113/274/23
f 128/280/24 119/260/24 117/258/24
f 115/277/24 114/279/24 121/281/24
f 115/277/24 121/281/24 124/284/24
f 126/278/24 128/280/24 117/258/24
f 115/277/24 124/284/24 126/278/24
f 114/279/24 119/260/24 128/280/24
o Cube.002_Cube.001
v -3.700000 1.639999 3.700000
v -3.700000 6.319999 3.700001
v -3.700000 6.320000 -3.699999
v -3.700000 1.640001 -3.700000
v 3.700000 6.320000 -3.699999
v 3.700000 1.640001 -3.700000
v 3.700000 6.319999 3.700001
v 3.700000 1.639999 3.700000
vt 0.625000 0.000000
vt 0.375000 0.250000
vt 0.375000 0.000000
vt 0.625000 0.250000
vt 0.375000 0.500000
vt 0.625000 0.500000
vt 0.375000 0.750000
vt 0.625000 0.750000
vt 0.375000 1.000000
vt 0.125000 0.750000
vt 0.125000 0.500000
vt 0.875000 0.500000
vt 0.625000 1.000000
vt 0.875000 0.750000
vn -1.0000 0.0000 0.0000
vn 0.0000 0.0000 -1.0000
vn 1.0000 0.0000 0.0000
vn 0.0000 -0.0000 1.0000
vn 0.0000 -1.0000 -0.0000
vn 0.0000 1.0000 0.0000
usemtl Material.004
s off
f 130/285/25 132/286/25 129/287/25
f 131/288/26 134/289/26 132/286/26
f 133/290/27 136/291/27 134/289/27
f 135/292/28 129/293/28 136/291/28
f 134/289/29 129/294/29 132/295/29
f 131/296/30 135/292/30 133/290/30
f 130/285/25 131/288/25 132/286/25
f 131/288/26 133/290/26 134/289/26
f 133/290/27 135/292/27 136/291/27
f 135/292/28 130/297/28 129/293/28
f 134/289/29 136/291/29 129/294/29
f 131/296/30 130/298/30 135/292/30
